<?xml version="1.0" encoding="UTF-8"?><svg id="Layer_1" xmlns="http://www.w3.org/2000/svg" viewBox="0 0 1469.53 209.39"><defs><style>.cls-1{fill:#231f20;}</style></defs><path class="cls-1" d="m153.94,128.36l-.36.44,2.67.88.16-.3c.44-.77.83-1.66,1.03-2.37.4-1.34.35-2.57-.15-3.56-.47-.92-1.32-1.6-2.4-1.92-2.29-.68-4.13.34-4.78,2.54-.06.21-.11.39-.13.56l-1.34-.42,1.16-3.93-2.28-.67-1.96,6.6,6.33,2.02v-.55c0-.62.08-1.2.25-1.79.16-.55.75-1.9,1.97-1.54,1.3.4,1,1.79.88,2.22-.23.77-.68,1.33-1.07,1.79m-6.07,8.37c-.07-.21-.05-.41.06-.65.17-.34.45-.51.86-.51.31,0,.67.1,1.04.28.49.25.84.59.96.94.07.21.05.42-.06.63-.18.37-.47.56-.88.56-.28,0-.6-.09-.93-.27-.56-.27-.95-.63-1.06-.98m-1.57,2.94c1.27.65,2.36.96,3.32.96,1.45,0,2.54-.72,3.25-2.14,1.11-2.22.36-4.19-2.03-5.4-1.98-.99-3.87-.4-4.81,1.51-.27.53-.38,1.06-.33,1.57-.72-.58-1.35-1.49-.8-2.61.28-.57.65-.95,1.11-1.35l.39-.33-2.1-1.51-.24.23c-.59.57-1.04,1.21-1.41,1.93-.56,1.14-.68,2.25-.32,3.31.61,1.85,2.5,3.11,3.97,3.83m-6.08,5.44c-.4.26-.84.48-1.21.48-.19,0-.34-.04-.48-.15-.56-.42-.28-1.12-.03-1.46.19-.27.43-.39.69-.39.19,0,.4.08.61.22.35.26.49.86.42,1.3m1.83,1.81c.82-.54,1.42-.62,1.93-.25.24.18.37.4.42.66.04.27-.05.57-.26.86-.39.53-1.12.68-1.61.31-.45-.34-.6-.8-.48-1.58m-2.45,1.12c-.07,1.24.33,2.18,1.22,2.83.64.48,1.31.72,1.99.72,1.15,0,2.29-.7,3.25-1.98.8-1.08,1.15-2.18,1-3.16-.13-.84-.6-1.57-1.41-2.17-.96-.7-2.03-.82-3.22-.35.02-1.13-.56-2.09-1.26-2.61-1.43-1.05-3.33-.45-4.72,1.43-1.38,1.86-1.26,3.76.33,4.94.79.58,1.82.72,2.81.36m-9.95,6.71l2.5.34.21-1.86,5.46,5.53,2.08-2.05-8.03-8.14-1.72,1.7-.51,4.49Zm-1.65,8.49l-2.41,1.67,1.68,2.4,2.4-1.67-1.67-2.41Zm-12.2.42l.69-.37c.46-.26.97-.39,1.5-.39,1.15,0,2.17.65,2.77,1.76,1.01,1.87.17,3.61-1.18,4.34l-.69.37-3.09-5.7Zm-3.75-.79l5.46,10.06,2.9-1.57c3.81-2.06,4.82-4.79,3.01-8.13-1.79-3.32-4.66-4-8.46-1.93l-2.9,1.57Zm.07,9.01l-2.74,1,.99,2.75,2.75-1-1-2.76Zm-11.81,1.38l.36-2.99,1.56,2.57-1.92.41Zm-1.81-6.29l-1.94,12.11,2.99-.65.39-2.57,3.68-.8,1.4,2.2,3.13-.68-6.77-10.23-2.88.62Zm-17.14,9.81l.37-6.49.77.04c1.54.08,3.04,1.29,2.92,3.41-.13,2.2-1.79,3.15-3.29,3.07l-.78-.03Zm-2.42-9.13l-.64,11.43,3.29.19c.26.01.5.01.76.01,3.83,0,5.88-1.8,6.09-5.36.1-1.76-.3-3.16-1.21-4.17-1.04-1.15-2.67-1.79-4.98-1.92l-3.31-.19Zm-10.62-2.52l-2.95,11.06,6.85,1.81.64-2.38-4.03-1.08.57-2.12,3.65.98.65-2.38-3.66-.98.46-1.77,3.99,1.06.65-2.38-6.82-1.83Zm-13.62,3.82l2.92-5.82.71.35c.73.38,1.3,1.02,1.56,1.79.25.79.17,1.66-.25,2.51-.6,1.19-1.62,1.86-2.81,1.86-.49,0-.98-.11-1.41-.35l-.7-.34Zm1.42-9.34l-5.14,10.22,2.94,1.47c1.41.72,2.65,1.06,3.79,1.06,1.98,0,3.53-1.08,4.61-3.23,1.7-3.39.6-6.1-3.26-8.04l-2.94-1.48Zm-10.68-8.16l-7.25,8.85,2.2,1.78,4.28-5.23-1.61,7.41,2.49,2.05,7.25-8.85-2.19-1.79-4.28,5.22,1.64-7.39-2.53-2.06Zm-14.25-5.71c-1.17.93-1.8,1.98-1.85,3.11-.05,1.05.39,2.18,1.33,3.35,1.11,1.4,2.29,2.1,3.55,2.1.93,0,1.87-.38,2.84-1.14l5.63-4.48-1.82-2.29-5.12,4.07c-1.38,1.11-2.37,1.21-3.16.21-.33-.41-.46-.81-.42-1.21.07-.57.52-1.18,1.34-1.83l5.11-4.07-1.82-2.28-5.63,4.47Zm-7.13-10.12c.27-.78,1.04-1.54,2.13-2.07.68-.33,1.37-.51,2-.51,1.02,0,1.76.44,2.18,1.32.29.61.34,1.2.15,1.78-.27.79-1.03,1.55-2.06,2.05-.72.36-1.44.55-2.08.55-.99,0-1.71-.46-2.16-1.34-.3-.6-.35-1.2-.16-1.76m-2.48-1.38c-.45,1.31-.3,2.77.42,4.23,1.01,2.05,2.69,3.18,4.75,3.18.98,0,2.01-.27,3.03-.77,1.63-.81,2.74-1.96,3.22-3.37.45-1.32.31-2.78-.42-4.25-1.01-2.05-2.69-3.2-4.7-3.2-.97,0-1.99.26-3.03.77-1.67.82-2.81,2-3.28,3.4m5.94-14.34l-11,3.18.82,2.79,4.48-1.29,1,3.45,2.37-.68-.99-3.45,1.75-.51,1.06,3.63,2.37-.69-1.85-6.43Zm-9.68-22.1l-2.7-.39-.13.27c-.34.73-.57,1.66-.63,2.48-.23,3.85,1.89,6.29,5.69,6.54.17,0,.34,0,.51,0,3.31,0,5.34-2.12,5.59-5.79.04-.73-.02-1.52-.19-2.51l-.06-.33-2.73-.02.26.56c.2.43.31,1.36.27,2.13-.13,1.92-1.57,3.09-3.6,2.94-2.06-.13-3.37-1.47-3.26-3.33.04-.61.14-1.28.65-2.03l.33-.53Zm3.99-12.08c.45,0,.94.07,1.42.2,1.16.33,2.06.94,2.46,1.67.29.51.34,1.09.17,1.73-.42,1.43-1.6,1.73-2.54,1.73-.47,0-.97-.08-1.5-.23-1.51-.43-3.08-1.57-2.57-3.38.4-1.42,1.62-1.72,2.56-1.72m.19-2.97c-2.53,0-4.39,1.46-5.12,4.01-.94,3.29.65,5.95,4.12,6.95.73.2,1.45.31,2.12.31,2.51,0,4.38-1.47,5.11-4.03.43-1.53.31-2.97-.36-4.17-.73-1.32-2.06-2.27-3.83-2.78-.71-.2-1.4-.3-2.04-.3m4.88-8.98c.14.47-.17,1.13-.41,1.58l-.15.26-1.83-.98.14-.25c.46-.86.96-1.56,1.74-1.15.28.15.44.33.51.54m.73-3.27c-.57-.3-1.12-.45-1.64-.45-1.85,0-2.83,1.86-3.7,3.51l-1.33,2.48,10.1,5.38,1.36-2.57-3.9-2.09.12-.23c.37-.7.65-.64,1.25-.57l3.81.49,1.5-2.84-5.06-.53c-.34-.03-.71,0-.99.05.04-1.07-.52-2.09-1.54-2.64m15.33-6.69l-8.8-7.3-1.79,2.17,5.18,4.3-7.35-1.7-2.07,2.49,8.81,7.3,1.79-2.16-5.19-4.3,7.36,1.68,2.05-2.47Zm2.36-8.29l2.92-2.36-1.57-1.92-2.9,2.36-1.15-1.42,3.17-2.57-1.56-1.92-5.42,4.41,7.21,8.87,5.44-4.43-1.56-1.92-3.19,2.6-1.39-1.71Zm15.63-4.64l-1.22-2.16-3.54,1.99-4.4-7.81-2.53,1.43,5.6,9.96,6.09-3.41Zm3.04-1.3l6.57-2.37-.85-2.32-3.83,1.39-3.05-8.43-2.72.99,3.88,10.75Zm22.24-5.78c.68-.81.97-1.93.84-3.32l-.59-7.18-2.89.24.54,6.53c.19,2.31-.74,2.68-1.56,2.75-.07,0-.14.01-.21.01-.68,0-1.6-.25-1.79-2.47l-.53-6.52-2.89.24.59,7.18c.22,2.65,1.71,4.06,4.32,4.06.23,0,.46-.01.7-.04,1.59-.14,2.74-.63,3.46-1.47m6.63,83.07c-.36-.04-.68-.05-.97-.04l.08,2.64c.18,0,.39,0,.62.03.47.04.91.1,1.32.13.83.1,1.55.16,2.17.19l1.1.03c1.12.03,2.37.06,2.8.07l.05-2.65c-.44,0-1.68-.03-2.79-.07l-1.1-.02c-.56-.02-1.21-.1-1.95-.17-.44-.05-.89-.1-1.34-.14m7.12-4.28l.06-2.64-1.02-.04c-.88-.01-2.07-.05-2.88-.06-.56-.02-1.19-.09-1.92-.16-.44-.05-.91-.1-1.38-.13-.34-.04-.66-.04-.95-.04l.04,2.64c.19,0,.4,0,.65.03.49.04.94.09,1.36.14.81.08,1.52.16,2.14.18.81,0,1.99.04,2.87.06l1.02.03Zm-7.16-10.38c-.34-.04-.68-.04-.97-.03l.12,2.64c.18-.01.38,0,.6.02l1.26.13c.85.1,1.6.16,2.24.18l3.9.11.06-2.66-3.9-.1c-.58-.02-1.25-.08-2.02-.17l-1.29-.13Zm-13.58,14.92c-1.24.03-3.18.1-3.76.11l.05,2.64c.57-.01,2.54-.07,3.9-.1.65-.02,1.38-.1,2.25-.19l1.29-.13c.19-.03.39-.03.57-.03l.04-2.64c-.28,0-.59,0-.88.03l-1.31.13c-.77.09-1.43.16-2.15.18m4.28-12.35l.04-2.64c-.28,0-.58.01-.89.04-.47.04-.9.1-1.31.14-.76.08-1.42.15-2.01.16l-3.9.1.07,2.66,3.89-.1c.64-.01,1.38-.1,2.24-.2.4-.04.82-.08,1.27-.13.21-.01.42-.03.6-.03m-.02,7.34l.12-2.65c-.28-.01-.59,0-.93.03l-1.3.13c-.77.09-1.43.16-2.02.17l-3.89.1.06,2.66,3.89-.11c.66-.01,1.39-.1,2.25-.19l1.24-.12c.2-.02.4-.03.58-.02m14.14-46.59h13.97c.01,2.07.02,4.43.02,6.36l-7.36-4.92-6.63,4.79c0-1.9,0-4.19,0-6.23m0,9.5l6.68-4.82,7.3,4.86c0,.41,0,.68-.01.77-.01.68-.88,1.4-1.61,1.9-1.68,1.12-4.22,2.55-5.4,3.21-1.13-.67-3.49-2.1-5.17-3.21-.52-.35-1.73-1.24-1.78-2.01,0-.07,0-.32,0-.7m-2.65-10.82c0,5.17,0,11.39.02,11.71.11,1.44,1.07,2.76,2.95,4.01,2.33,1.56,5.8,3.6,5.95,3.69l.65.38.65-.36c.16-.09,3.92-2.13,6.27-3.71,2.74-1.83,2.78-3.48,2.79-4.04.02-.29.02-6.52,0-11.68v-1.32h-19.27v1.32Zm-29,7.96h13.56c0,2.06,0,3.67-.01,3.91-.02.66-.86,1.36-1.56,1.83-1.63,1.09-4.08,2.48-5.23,3.13-1.1-.66-3.4-2.04-5.02-3.13-1.07-.7-1.69-1.4-1.72-1.92,0-.19,0-1.77,0-3.81m13.56-2.65h-13.56c0-1.15,0-2.33,0-3.43h13.55c0,1.1,0,2.28,0,3.43m-16.21-4.75c0,4.11-.01,11.07.02,11.39.09,1.42,1.04,2.71,2.88,3.94,2.28,1.53,5.67,3.52,5.81,3.6l.65.38.65-.36c.16-.09,3.82-2.08,6.1-3.62,2.68-1.78,2.73-3.4,2.74-3.94.02-.3.02-6.36,0-11.39v-1.32h-18.84v1.32Zm58.18,42.4c0,20.38-25.03,34.2-32.4,37.82v-18.54c.14-.13.27-.27.37-.38.37-.43.6-.69,1.31-.69,1.7.03,2.99.1,4.45.24,1.39.13,2.97.27,5.22.32,2.22.05,3.95-.04,4.02-.05l1.25-.06v-6.93h2.94v-3.7h-2.94v-6.7h2.94v-3.69h-2.94v-7.53l-1.29-.03c-.47-.01-1.02-.01-1.66,0-.9-.02-1.96,0-3.32-.04-1.06-.03-2.29-.16-3.73-.31-.83-.09-1.73-.18-2.66-.27-2-.23-3.77.14-3.88.16-.03.01-.06.02-.08.03v-7.11h32.4v17.47Zm0-21.01H54.01v-25.23h67.52s0,25.23,0,25.23Zm-36.75,36.57h-.08c-1.82,0-3.17.13-4.61.25-1.42.13-2.89.27-5.05.31-.99.03-1.88.01-2.56,0v-23.41h.31c.9,0,2,0,3.39-.03,1.17-.03,2.45-.17,3.94-.34.82-.08,1.69-.17,2.67-.25,1.55-.18,2.97.1,2.97.1.15.04.25.08.37.12v23.47c-.39-.14-.81-.23-1.34-.23m-30.77-33.02h32.11v7.04c-.52-.1-1.99-.31-3.61-.12-.96.09-1.84.18-2.68.27-1.43.15-2.67.29-3.73.31-1.35.04-2.43.04-3.32.04h-1.66l-1.29.03v6.81h-3.17v3.69h3.17v6.81h-3.17v3.68h3.17v7.57l1.24.06c.08,0,1.8.1,4.03.05,2.25-.05,3.83-.2,5.23-.32,1.44-.13,2.68-.24,4.38-.24.67-.01.89.2,1.25.65.05.06.11.13.17.2v18.59c-7.79-3.82-32.11-17.47-32.11-38.51v-16.61Zm35.14,9.9c.17-.08.37-.16.65-.23.02,0,1.46-.3,3.04-.1.95.08,1.83.16,2.65.26,1.48.15,2.77.29,3.94.32,1.18.03,2.15.03,2.98.03h.7v23.41c-.67.01-1.56.03-2.55,0-2.16-.04-3.64-.18-5.05-.3-1.46-.14-2.76-.27-4.69-.26-.68,0-1.22.15-1.67.34v-23.47Zm35.93,7.57v-49.79s-74.59,0-74.59,0v48.92c0,11.34,6.38,22.37,18.45,31.9,8.98,7.08,17.83,10.83,18.2,10.98l.68.29.69-.29c.38-.17,9.19-3.96,18.14-10.96,12.05-9.44,18.43-20.17,18.43-31.06m18.06-10.88c0,30.68-24.96,55.64-55.64,55.64s-55.65-24.96-55.65-55.64,24.96-55.64,55.65-55.64,55.64,24.97,55.64,55.64m-55.64-57.64c-31.79,0-57.64,25.85-57.64,57.64s25.85,57.65,57.64,57.65,57.63-25.86,57.63-57.65-25.85-57.64-57.63-57.64m13.34-2.61l1.53-11.34-2.78-.37-.9,6.68-2.47-7.14-3.18-.43-1.53,11.35,2.78.37.9-6.69,2.47,7.14,3.18.43Zm6.69,2.03l3.43-10.91-2.76-.88-3.43,10.92,2.77.87Zm9.21,4.01l8.55-8.49-2.61-1.32-5.52,5.62,1.22-7.78-2.76-1.41-1.7,11.97,2.81,1.41Zm16.91.77l1.53-1.95-5.51-4.31-7.04,9.01,5.53,4.33,1.53-1.94-3.25-2.54,1.35-1.74,2.94,2.31,1.53-1.94-2.95-2.31,1.12-1.45,3.22,2.52Zm6.96,7.64c0,.2-.12.39-.34.58-.21.19-.42.29-.63.29-.48,0-1-.5-1.38-.94l-.19-.22,1.55-1.37.2.22c.4.48.83,1,.78,1.45m1.79,2.71c2.46-2.17.49-4.41-.94-6.05l-1.88-2.13-8.6,7.54,1.92,2.18,3.32-2.91.19.21c.42.49.44.7.09,1.38l-1.79,3.39,2.12,2.4,2.29-4.55c.08-.16.24-.52.3-.93.98.43,2.16.23,3.01-.51m6.75,9.83l2.37-1.07-.06-.31c-.17-.82-.5-1.62-1-2.48-1.25-2.1-3.29-2.77-5.21-1.65-1.96,1.16-1.67,3.02-1.47,4.37.18,1.07.25,1.7-.25,1.99-.57.33-1.27-.23-1.59-.77-.36-.61-.56-1.37-.59-2.19l-.03-.6-2.61,1.21.18.58c.26.89.42,1.42.98,2.36.92,1.57,2.17,2.44,3.48,2.44.61,0,1.22-.17,1.83-.55,2.03-1.19,1.71-3.09,1.48-4.48-.16-.98-.23-1.59.18-1.84.2-.11.39-.17.57-.17.53,0,.87.5,1,.71.33.56.55,1.23.64,1.92l.07.53Zm-4.3,11.2l10.59-4.32-1.1-2.69-10.58,4.33,1.09,2.68Zm12.05,9.5l2.39-.59-2.13-8.66-2.4.59.72,2.92-8.71,2.14.69,2.83,8.71-2.15.72,2.93Zm3.52,11.28l-4.17-2.07,3.92-2.46-.19-3.4-6.71,4.51-4.49.25.17,2.9,4.49-.26,7.15,3.67-.17-3.15Zm3.84,1.27c0,42.34-34.44,76.77-76.77,76.77S10.71,148.61,10.71,106.28,45.15,29.5,87.48,29.5s76.77,34.45,76.77,76.78m2.06,0c0-43.47-35.36-78.84-78.83-78.84S8.65,62.8,8.65,106.28s35.36,78.83,78.83,78.83,78.83-35.36,78.83-78.83"/><path class="cls-1" d="m257.96,151.2c-2.42-1.03-6.32-1.92-11.61-2.63-3.82-.54-6.47-1-7.9-1.37-1.4-.36-2.64-.92-3.68-1.65-1.03-.72-1.88-1.72-2.54-2.97-.65-1.25-.99-2.71-.99-4.33,0-2.11.56-4.21,1.66-6.25,1.08-2.01,2.71-3.51,4.83-4.45,2.15-.95,4.49-1.43,6.96-1.43,2.96,0,5.75.65,8.28,1.94,3.23,1.65,3.81,2.6,3.86,3.03.12.87.2,3.05.26,6.47v.17s.6.5.6.5h2.61l.64-.54v-.17c.15-4.83.55-8.61,1.2-11.22l.04-.15-.45-.75-.1-.05c-2.52-1.21-5.35-2.14-8.43-2.77-3.07-.62-5.94-.93-8.55-.93-6.59,0-11.93,1.77-15.86,5.25-3.94,3.5-5.94,8.04-5.94,13.5,0,2.02.35,3.95,1.03,5.72.68,1.77,1.61,3.29,2.76,4.52,1.14,1.22,2.59,2.24,4.3,3.04,1.69.79,3.41,1.37,5.11,1.75,1.67.37,4.03.79,7.02,1.25,3.03.48,5.35.94,6.89,1.35,1.49.4,2.85,1.02,4.02,1.84,1.15.81,2.05,1.9,2.69,3.24.64,1.35.97,2.96.97,4.8,0,2.61-.69,5-2.04,7.1-1.35,2.1-3.27,3.71-5.72,4.8-2.45,1.09-5.27,1.65-8.36,1.65-2.26,0-4.53-.28-6.73-.85-2.21-.56-3.99-1.29-5.3-2.17-1.28-.85-2.04-1.66-2.26-2.38-.24-.79-.44-3.03-.58-6.65v-.15s-.59-.56-.59-.56h-2.49l-.58.56v.16c-.15,6.6-.37,10.84-.67,12.63l-.02.12.38.79.12.06c4.68,2.14,10.19,3.23,16.39,3.23,7.42,0,13.82-2.09,19.04-6.21,5.24-4.14,7.9-9.39,7.9-15.6,0-3.2-.75-5.97-2.23-8.23-1.48-2.27-3.48-3.95-5.94-4.99Z"/><path class="cls-1" d="m330.13,175.75c-1.48,1.02-3.02,1.89-4.61,2.6s-3.61,1.3-6.02,1.79c-2.4.48-4.95.73-7.57.73-5.91,0-11.14-1.16-15.55-3.45-4.4-2.28-7.92-5.6-10.47-9.86-2.55-4.26-3.84-9.29-3.84-14.94s1.1-10.45,3.26-14.32c2.16-3.87,5.24-6.87,9.15-8.9,3.93-2.05,8.43-3.09,13.38-3.09,3.28,0,6.49.47,9.53,1.39,2.95.89,5.52,2.15,7.64,3.73l.45,7.3.57.56h2.42l.51-.57v-.13c.6-6.28,1.24-10.26,1.91-11.83l.08-.2-.5-.69-.09-.04c-2.61-1.13-5.9-2.11-9.78-2.91-3.89-.81-7.87-1.22-11.84-1.22-6.88,0-13.16,1.24-18.69,3.68-5.54,2.45-10.06,6.19-13.44,11.13-3.38,4.94-5.1,10.8-5.1,17.4,0,9.59,3.44,17.46,10.22,23.4,6.76,5.93,15.67,8.94,26.48,8.94,7.54,0,14.72-1.65,21.37-4.91l.13-.06,1.85-4.35-1.13-1.35-.28.2Z"/><path class="cls-1" d="m379.76,122.95c-7.61.23-11.81.34-12.82.34s-5.18-.11-12.82-.34h-.16s-.55.52-.55.52v2.48l.54.51h.14c3.9.14,5.36.33,5.89.47.88.23,1.26.49,1.42.66.16.18.39.62.56,1.7.14.93.23,3.04.26,6.28l.09,8.4v37.47c0,1.71-.04,3.79-.13,6.2-.09,2.35-.32,3.98-.69,4.84-.36.84-.96,1.48-1.83,1.98-.88.5-2.03.75-3.41.75-1.58,0-3.12-.53-4.56-1.57l-.21-.15-1.25.83v.22c.1,1.44.15,2.48.15,3.16-.03,1.15-.07,2.29-.14,3.44l-.02.32.31.07c.65.15,1.31.23,1.96.23,2.23,0,4.51-.62,6.78-1.84,2.25-1.21,4.46-3.08,6.57-5.56,2.11-2.49,3.61-5.24,4.45-8.16.84-2.91,1.27-6.7,1.27-11.25v-30.96l.09-9.92c0-2.04.08-3.65.24-4.8.14-1.03.43-1.7.83-1.95.45-.28,1.22-.48,2.28-.59,1.1-.11,2.71-.2,4.78-.26h.15s.53-.52.53-.52v-2.48l-.54-.52h-.16Z"/><path class="cls-1" d="m403.6,142.53c-5.03,0-9.44,1.19-13.11,3.53-3.67,2.35-6.28,5.17-7.76,8.4-1.48,3.21-2.23,6.6-2.23,10.06,0,3.73.8,7.22,2.39,10.39,1.59,3.18,4.08,5.9,7.4,8.11,3.33,2.2,7.16,3.32,11.39,3.32,6.45,0,12.04-2.18,16.61-6.49,4.57-4.31,6.89-9.87,6.89-16.53,0-6.06-2.02-11.09-6.02-14.96-3.99-3.86-9.23-5.82-15.56-5.82Zm8.84,36.07c-2.21,2.59-5.05,3.9-8.43,3.9-2.88,0-5.48-.94-7.72-2.8-2.26-1.87-3.94-4.39-4.98-7.48-1.05-3.12-1.59-6.72-1.59-10.68,0-4.98,1.07-8.83,3.18-11.45,2.09-2.6,5.05-3.91,8.78-3.91,4.52,0,8.03,1.91,10.44,5.69,2.44,3.83,3.67,8.83,3.67,14.85,0,5.29-1.13,9.29-3.35,11.89Z"/><path class="cls-1" d="m477.19,181.68c-3.96,0-4.99-.42-5.26-.67s-.73-1.18-.84-4.61c-.15-6.41-.23-10.22-.23-10.73v-7.59c0-2.47-.21-4.57-.64-6.26-.43-1.72-1.22-3.23-2.34-4.49-1.12-1.26-2.79-2.36-4.97-3.27-2.17-.91-4.44-1.37-6.74-1.37-1.37,0-2.72.15-4,.44-1.31.3-2.23.57-2.82.84-.6.27-1.23.7-1.89,1.27-1.94,1.76-4.06,3.58-6.34,5.4v-9.86c0-9.9.17-16.57.49-19.84l.02-.24-1.21-.74-.18.07c-3.87,1.48-8.68,2.54-14.31,3.17h-.14s-.55.62-.55.62v2.12l.63.61h.15c3.88,0,5.04.09,5.32.16.36.09.61.23.73.38.03.04.21.34.34,2,.11,1.24.2,3.47.29,6.62l.18,9.14v22.34c0,1.59-.07,3.92-.2,7.12-.16,3.86-.28,5.13-.35,5.51-.09.48-.25.83-.47,1.05-.23.22-.5.37-.8.44-.25.06-1.28.17-4.83.38h-.12s-.64.55-.64.55v2.15l.64.62h.17c3.72-.24,7.32-.35,10.71-.35s7.04.12,10.76.34h.18s.58-.62.58-.62v-2.13l-.64-.54h-.12c-3.49-.22-4.53-.32-4.78-.37-.32-.06-.58-.19-.79-.4-.21-.21-.38-.56-.5-1.06-.09-.38-.23-1.72-.37-5.94-.12-3.41-.18-5.46-.18-6.09v-7.67c0-2.36.14-3.97.4-4.77.26-.78,1.08-1.8,2.42-3.01,1.36-1.23,2.71-2.11,4.02-2.62,1.3-.51,2.96-.77,4.94-.77s3.53.33,4.86.97c1.32.65,2.4,1.56,3.18,2.72.8,1.16,1.28,2.48,1.44,3.9.16,1.48.24,3.94.24,7.29v5.65c0,5.95-.2,10.85-.58,14.58l-.02.19.8.71h.16c3.71-.24,5.83-.35,6.51-.35,1.33,0,3.84.11,7.67.34h.17s.59-.56.59-.56v-2.18l-.58-.56h-.15Z"/><path class="cls-1" d="m531.42,181.68c-3.96,0-5.01-.42-5.29-.68-.27-.25-.74-1.18-.81-4.6-.15-6.41-.23-10.22-.23-10.73v-7.59c0-2.47-.21-4.57-.64-6.26-.43-1.72-1.22-3.23-2.34-4.49-1.12-1.26-2.79-2.36-4.97-3.27-3.46-1.44-7.27-1.71-10.76-.93-1.32.3-2.25.57-2.83.85-.58.27-1.2.7-1.86,1.27-1.94,1.76-4,3.53-6.15,5.25.06-2.72.18-4.99.34-6.75l.02-.23-1.2-.79-.18.07c-3.85,1.48-8.67,2.56-14.31,3.21h-.13s-.56.56-.56.56v2.19l.64.55,3.9.04c1.36,0,1.91.15,2.14.27.29.16.45.4.5.74.05.31.14,1.2.28,3.63.12,2.03.18,3.56.18,4.68v8.5c0,1.59-.07,3.92-.2,7.12-.16,3.86-.28,5.13-.35,5.51-.09.48-.25.83-.47,1.05-.23.22-.5.37-.8.44-.25.06-1.28.17-4.83.38h-.12s-.64.55-.64.55v2.15l.64.62h.17c3.72-.24,7.32-.35,10.71-.35s7.04.12,10.76.34h.18s.58-.62.58-.62v-2.13l-.64-.54h-.12c-3.5-.22-4.53-.32-4.78-.37-.32-.06-.58-.19-.79-.4-.21-.21-.38-.56-.5-1.06-.13-.54-.25-2.54-.37-5.94-.12-3.34-.18-5.44-.18-6.09v-7.5c0-2.26.07-3.75.2-4.43.12-.64.49-1.35,1.11-2.12.63-.78,1.62-1.64,2.96-2.55,1.33-.91,2.54-1.51,3.6-1.8,1.06-.29,2.36-.44,3.88-.44,1.87,0,3.5.33,4.84.97,1.34.65,2.42,1.56,3.21,2.72.8,1.17,1.28,2.48,1.44,3.9.16,1.48.24,3.94.24,7.29v5.65c0,5.95-.2,10.85-.58,14.58l-.02.19.8.71h.16c3.62-.24,5.75-.35,6.51-.35,1.33,0,3.84.11,7.67.34h.17s.59-.56.59-.56v-2.18l-.58-.56h-.15Z"/><path class="cls-1" d="m562.61,162.39c-1.82-.72-4.85-1.58-9.01-2.56l-4.89-1.21c-1-.22-1.97-.59-2.89-1.1-.88-.49-1.55-1.14-1.97-1.94-.43-.8-.65-1.73-.65-2.75,0-1.41.36-2.61,1.07-3.59.72-.99,1.67-1.74,2.83-2.22,1.18-.5,2.67-.75,4.44-.75s3.35.28,4.88.82c1.52.54,2.71,1.2,3.53,1.99.81.76,1.32,1.48,1.51,2.12.2.67.36,1.88.48,3.6v.14s.63.6.63.6h2.1l.63-.61v-.16c.06-4.84.21-7.86.44-8.98l.03-.16-.55-.83-.11-.04c-1.24-.49-3.06-1.02-5.43-1.55-2.37-.54-4.6-.81-6.61-.81-4.8,0-8.87,1.19-12.1,3.55-3.26,2.38-4.92,5.59-4.92,9.56,0,1.65.31,3.19.93,4.57.62,1.39,1.53,2.57,2.7,3.53,1.17.95,2.4,1.63,3.66,2.03,1.23.39,3.34.92,6.47,1.63,3.54.8,6.02,1.49,7.38,2.07,1.31.55,2.31,1.27,2.96,2.12.63.83.95,1.83.95,2.98,0,2.18-.89,4-2.71,5.58-1.81,1.57-4.28,2.37-7.33,2.37-2.16,0-4.37-.42-6.57-1.25-2.14-.8-3.67-1.84-4.56-3.09-.23-1.68-.37-3.73-.43-6.08v-.16s-.63-.6-.63-.6h-2.23l-.63.6v.16c-.03,2.89-.06,4.81-.09,5.71-.03.88-.12,1.77-.26,2.65l-.45,2.89-.02.1.33.84.19.05c1.98.49,4.39.94,7.17,1.34,2.79.41,5.16.61,7.05.61,5.4,0,9.89-1.47,13.35-4.36,3.48-2.91,5.24-6.44,5.24-10.51,0-2.14-.52-3.99-1.54-5.5-1.02-1.51-2.49-2.65-4.36-3.4Z"/><path class="cls-1" d="m595.3,142.53c-5.03,0-9.44,1.19-13.11,3.53-3.67,2.35-6.28,5.17-7.76,8.4-1.48,3.21-2.23,6.6-2.23,10.06,0,3.73.8,7.22,2.39,10.39,1.59,3.18,4.08,5.9,7.4,8.11,3.33,2.2,7.16,3.32,11.39,3.32,6.45,0,12.04-2.18,16.61-6.49,4.57-4.31,6.89-9.87,6.89-16.53,0-6.06-2.02-11.09-6.02-14.96-3.99-3.86-9.23-5.82-15.56-5.82Zm8.84,36.07c-2.21,2.59-5.05,3.9-8.43,3.9-2.88,0-5.48-.94-7.72-2.8-2.26-1.87-3.94-4.39-4.98-7.48-1.05-3.12-1.59-6.72-1.59-10.68,0-4.98,1.07-8.83,3.18-11.45,2.09-2.6,5.05-3.91,8.78-3.91,4.52,0,8.03,1.91,10.44,5.69,2.44,3.83,3.67,8.83,3.67,14.85,0,5.29-1.13,9.29-3.35,11.89Z"/><path class="cls-1" d="m669.49,181.68c-3.96,0-5.01-.42-5.29-.68-.27-.25-.74-1.18-.81-4.6-.15-6.41-.23-10.22-.23-10.73v-7.59c0-2.47-.21-4.57-.64-6.26-.43-1.72-1.22-3.23-2.34-4.49-1.12-1.26-2.79-2.36-4.97-3.27-3.46-1.44-7.27-1.71-10.76-.93-1.32.3-2.25.57-2.83.85-.58.27-1.2.7-1.86,1.27-1.94,1.76-4,3.53-6.15,5.25.06-2.72.18-4.99.34-6.75l.02-.23-1.2-.79-.18.07c-3.85,1.48-8.67,2.56-14.31,3.21h-.13s-.56.56-.56.56v2.19l.64.55,3.9.04c1.36,0,1.91.15,2.14.27.29.16.45.4.5.74.05.31.14,1.2.28,3.63.12,2.03.18,3.56.18,4.68v8.5c0,1.59-.07,3.92-.2,7.12-.16,3.86-.28,5.13-.35,5.51-.09.48-.25.83-.47,1.05-.23.22-.5.37-.8.44-.25.06-1.28.17-4.83.38h-.12s-.64.55-.64.55v2.15l.64.62h.17c3.72-.24,7.32-.35,10.71-.35s7.04.12,10.76.34h.18s.58-.62.58-.62v-2.13l-.64-.54h-.12c-3.5-.22-4.53-.32-4.78-.37-.32-.06-.58-.19-.79-.4-.21-.21-.38-.56-.5-1.06-.13-.54-.25-2.54-.37-5.94-.12-3.34-.18-5.44-.18-6.09v-7.5c0-2.26.07-3.75.2-4.43.12-.64.49-1.35,1.11-2.12.63-.78,1.62-1.64,2.96-2.55,1.33-.91,2.54-1.51,3.6-1.8,1.06-.29,2.36-.44,3.88-.44,1.87,0,3.5.33,4.84.97,1.34.65,2.42,1.56,3.21,2.72.8,1.17,1.28,2.48,1.44,3.9.16,1.48.24,3.94.24,7.29v5.65c0,5.95-.2,10.85-.58,14.58l-.02.19.8.71h.16c3.62-.24,5.75-.35,6.51-.35,1.33,0,3.84.11,7.67.34h.17s.59-.56.59-.56v-2.18l-.58-.56h-.15Z"/><path class="cls-1" d="m753.22,175.75c-1.48,1.02-3.02,1.89-4.61,2.6s-3.61,1.3-6.02,1.79c-2.4.48-4.95.73-7.57.73-5.91,0-11.14-1.16-15.55-3.45-4.4-2.28-7.92-5.6-10.47-9.86-2.55-4.26-3.84-9.29-3.84-14.94s1.1-10.45,3.26-14.32c2.16-3.87,5.24-6.87,9.15-8.9,3.93-2.05,8.43-3.09,13.38-3.09,3.28,0,6.49.47,9.53,1.39,2.95.89,5.52,2.15,7.64,3.73l.45,7.3.57.56h2.42l.51-.57v-.13c.6-6.28,1.24-10.26,1.91-11.83l.08-.2-.5-.69-.09-.04c-2.61-1.13-5.9-2.11-9.78-2.91-3.89-.81-7.87-1.22-11.84-1.22-6.88,0-13.16,1.24-18.69,3.68-5.54,2.45-10.06,6.19-13.44,11.13-3.38,4.94-5.1,10.8-5.1,17.4,0,9.59,3.44,17.46,10.22,23.4,6.76,5.93,15.67,8.94,26.48,8.94,7.54,0,14.72-1.65,21.37-4.91l.13-.06,1.85-4.35-1.13-1.35-.28.2Z"/><path class="cls-1" d="m779.6,142.53c-5.03,0-9.44,1.19-13.11,3.53-3.67,2.35-6.28,5.17-7.76,8.4-1.48,3.21-2.23,6.6-2.23,10.06,0,3.73.8,7.22,2.39,10.39,1.59,3.18,4.08,5.9,7.4,8.11,3.33,2.2,7.16,3.32,11.39,3.32,6.45,0,12.04-2.18,16.61-6.49,4.57-4.31,6.89-9.87,6.89-16.53,0-6.06-2.02-11.09-6.02-14.96-3.99-3.86-9.23-5.82-15.56-5.82Zm8.84,36.07c-2.21,2.59-5.05,3.9-8.43,3.9-2.88,0-5.48-.94-7.72-2.8-2.26-1.87-3.94-4.39-4.98-7.48-1.05-3.12-1.59-6.72-1.59-10.68,0-4.98,1.07-8.83,3.18-11.45,2.09-2.6,5.05-3.91,8.78-3.91,4.52,0,8.03,1.91,10.44,5.69,2.44,3.83,3.67,8.83,3.67,14.85,0,5.29-1.13,9.29-3.35,11.89Z"/><path class="cls-1" d="m824.45,181.68c-3.5-.21-4.53-.31-4.78-.36-.32-.06-.58-.19-.79-.4-.21-.21-.38-.56-.5-1.06-.09-.38-.23-1.72-.37-5.94-.12-3.62-.18-5.5-.18-6.09v-27.03c0-9.87.17-16.54.49-19.84l.02-.24-1.21-.74-.18.07c-3.86,1.48-8.68,2.54-14.31,3.17h-.14s-.55.62-.55.62v2.12l.63.61h.15c3.88,0,5.03.09,5.32.16.36.09.61.22.74.38.03.04.2.34.34,2,.1,1.21.2,3.37.29,6.62l.18,9.14v22.34c0,1.59-.07,3.92-.2,7.12-.13,3.11-.25,4.97-.35,5.51-.09.48-.25.84-.47,1.05-.23.23-.5.37-.81.44-.25.06-1.28.17-4.83.38h-.12s-.64.55-.64.55v2.15l.64.62h.17c3.72-.24,7.32-.35,10.71-.35s7.03.12,10.75.34h.18s.58-.62.58-.62v-2.13l-.64-.54h-.12Z"/><path class="cls-1" d="m850.66,181.68c-3.5-.21-4.53-.31-4.78-.36-.32-.06-.58-.19-.79-.4-.21-.21-.38-.56-.5-1.06-.09-.38-.23-1.72-.37-5.94-.12-3.62-.18-5.5-.18-6.09v-27.03c0-9.87.17-16.54.49-19.84l.02-.24-1.21-.74-.18.07c-3.86,1.48-8.68,2.54-14.31,3.17h-.14s-.55.62-.55.62v2.12l.63.61h.15c3.88,0,5.03.09,5.32.16.36.09.61.22.74.38.03.04.2.34.34,2,.1,1.21.2,3.37.29,6.62l.18,9.14v22.34c0,1.59-.07,3.92-.2,7.12-.13,3.11-.25,4.97-.35,5.51-.09.48-.25.84-.47,1.05-.23.23-.5.37-.81.44-.25.06-1.28.17-4.83.38h-.12s-.64.55-.64.55v2.15l.64.62h.17c3.72-.24,7.32-.35,10.71-.35s7.03.12,10.75.34h.18s.58-.62.58-.62v-2.13l-.64-.54h-.12Z"/><path class="cls-1" d="m884.01,144.97c-2.77-1.65-6.02-2.49-9.65-2.49-2.65,0-5.17.44-7.47,1.32-2.29.87-4.48,2.05-6.52,3.49-2.05,1.46-3.53,2.81-4.4,4.01s-1.71,3.06-2.49,5.52c-.78,2.45-1.18,5.24-1.18,8.29,0,4.59,1.04,8.58,3.07,11.84,2.05,3.27,4.74,5.63,8,7,3.24,1.37,6.71,2.06,10.32,2.06,1.93,0,4.15-.29,6.59-.87,2.45-.58,5.28-1.86,8.41-3.8l.09-.06,1.59-3.45-1.1-1.13-.26.15c-2.1,1.22-4.14,2.18-6.04,2.86-1.87.67-3.86,1.01-5.89,1.01-4.29,0-7.97-1.39-10.92-4.12-2.88-2.67-4.4-6.87-4.52-12.49h13.97c1.1,0,3.4-.07,6.81-.21,3.43-.15,6.21-.44,8.25-.87l.1-.02.67-.65v-.14c.11-.84.15-1.73.15-2.63,0-2.88-.57-5.64-1.69-8.21-1.13-2.6-3.12-4.75-5.9-6.41Zm-1.35,13.98c0,.31-.01.73-.03,1.26-1.07.11-3.49.17-7.19.17-1.68,0-4.29-.06-7.97-.17-3.05-.1-5-.19-5.82-.26.04-4.52,1.02-7.98,2.88-10.29,1.9-2.34,4.59-3.52,8-3.52,3.12,0,5.61,1.05,7.4,3.13,1.81,2.09,2.73,5.35,2.73,9.69Z"/><path class="cls-1" d="m933.72,179.81c-1.72-.74-4.22-1.11-7.42-1.11l-10.01.13c-3.72,0-6.19-.25-7.34-.74-1.07-.46-1.58-1.22-1.58-2.33,0-.61.22-1.2.68-1.8.48-.62,1.56-1.59,3.23-2.87h1.93c2.83,0,5.4-.41,7.62-1.23,2.22-.81,4.23-1.92,5.99-3.29,1.76-1.38,3.16-3.07,4.15-5.04.99-1.98,1.5-4.03,1.5-6.12,0-1.58-.34-3.11-1.02-4.58h7.93l.11-.2c.29-.53,1.05-1.71,2.26-3.5l.12-.18-.55-1.2h-.26c-3.2.12-7.51.18-12.79.18-3.39-2.32-7.01-3.49-10.76-3.49-2.18,0-4.61.37-7.24,1.11-2.62.74-5.03,1.76-7.16,3.04-2.16,1.3-3.79,3.05-4.86,5.22-1.07,2.15-1.61,4.45-1.61,6.83,0,2.6.77,5.02,2.28,7.2,1.43,2.06,4.11,3.64,7.99,4.72l-6.53,4.53-.08.05-.04.09c-.77,1.54-1.16,2.9-1.16,4.05s.37,2.16,1.1,2.99c.64.73,2.02,1.44,4.21,2.15l-7.3,3.93-.13.12c-.95,1.38-1.59,2.69-1.93,3.89-.34,1.19-.51,2.35-.51,3.45,0,1.98.54,3.92,1.62,5.75,1.07,1.83,2.5,3.33,4.26,4.46,1.74,1.12,3.79,1.97,6.11,2.53,2.31.55,4.8.83,7.4.83,4.59,0,8.97-.84,13.02-2.49,4.08-1.66,7.24-4.12,9.41-7.32,2.17-3.2,3.26-6.46,3.26-9.68,0-2.13-.54-4.17-1.61-6.07-1.08-1.92-2.52-3.27-4.28-4.02Zm-28.64-23.67c0-3.24.88-5.7,2.63-7.33,1.76-1.64,3.96-2.46,6.56-2.46,3.12,0,5.46,1.12,7.16,3.42,1.7,2.31,2.56,4.95,2.56,7.84,0,3.4-.93,5.93-2.75,7.52-1.84,1.6-4.07,2.41-6.62,2.41-1.91,0-3.66-.5-5.18-1.49-1.52-.98-2.63-2.46-3.32-4.38-.7-1.96-1.05-3.82-1.05-5.52Zm10.53,49.68c-4.07,0-7.35-1-9.78-2.97-2.4-1.96-3.62-4.53-3.62-7.64,0-1.76.41-3.38,1.22-4.79.81-1.42,1.88-2.55,3.16-3.38,1.29-.83,2.29-1.3,2.96-1.41.7-.11,3.47-.17,8.24-.17,3.99,0,6.84.15,8.5.45,1.58.28,2.88,1.09,3.88,2.4,1,1.32,1.51,2.93,1.51,4.79s-.62,3.87-1.85,5.93c-1.23,2.05-3.15,3.71-5.72,4.94-2.59,1.23-5.45,1.86-8.51,1.86Z"/><path class="cls-1" d="m973.43,144.97c-2.77-1.65-6.02-2.49-9.65-2.49-2.65,0-5.17.44-7.47,1.32-2.29.87-4.48,2.05-6.52,3.49-2.05,1.46-3.53,2.81-4.4,4.01s-1.71,3.06-2.49,5.52c-.78,2.45-1.18,5.24-1.18,8.29,0,4.59,1.04,8.58,3.07,11.84,2.05,3.27,4.74,5.63,8,7,3.24,1.37,6.71,2.06,10.32,2.06,1.93,0,4.15-.29,6.59-.87,2.45-.58,5.28-1.86,8.41-3.8l.09-.06,1.59-3.45-1.1-1.13-.26.15c-2.1,1.22-4.14,2.18-6.04,2.86-1.87.67-3.86,1.01-5.89,1.01-4.29,0-7.97-1.39-10.92-4.12-2.88-2.67-4.4-6.87-4.52-12.49h13.97c1.1,0,3.4-.07,6.81-.21,3.43-.15,6.21-.44,8.25-.87l.1-.02.67-.65v-.14c.11-.84.15-1.73.15-2.63,0-2.88-.57-5.64-1.69-8.21-1.13-2.6-3.12-4.75-5.9-6.41Zm-1.35,13.98c0,.31-.01.73-.03,1.26-1.07.11-3.49.17-7.19.17-1.68,0-4.29-.06-7.97-.17-3.05-.1-5-.19-5.82-.26.04-4.52,1.02-7.98,2.88-10.29,1.9-2.34,4.59-3.52,8-3.52,3.12,0,5.61,1.05,7.4,3.13,1.81,2.09,2.73,5.35,2.73,9.69Z"/><path class="cls-1" d="m1030.51,142.53c-5.03,0-9.44,1.19-13.11,3.53-3.67,2.35-6.28,5.17-7.76,8.4-1.48,3.21-2.23,6.6-2.23,10.06,0,3.73.8,7.22,2.39,10.39,1.59,3.18,4.08,5.9,7.4,8.11,3.33,2.2,7.16,3.32,11.39,3.32,6.45,0,12.04-2.18,16.61-6.49,4.57-4.31,6.89-9.87,6.89-16.53,0-6.06-2.02-11.09-6.02-14.96-3.99-3.86-9.23-5.82-15.56-5.82Zm8.84,36.07c-2.21,2.59-5.05,3.9-8.43,3.9-2.88,0-5.48-.94-7.72-2.8-2.26-1.87-3.94-4.39-4.98-7.48-1.05-3.12-1.59-6.72-1.59-10.68,0-4.98,1.07-8.83,3.18-11.45,2.09-2.6,5.05-3.91,8.78-3.91,4.52,0,8.03,1.91,10.44,5.69,2.44,3.83,3.67,8.83,3.67,14.85,0,5.29-1.13,9.29-3.35,11.89Z"/><path class="cls-1" d="m1075.31,120.63c-1.05.43-2.29,1.28-3.69,2.53-1.39,1.24-3,2.82-4.81,4.72-1.86,1.96-3.13,3.53-3.88,4.81-.74,1.28-1.27,2.7-1.54,4.22-.27,1.5-.41,3.72-.41,6.6v2.35l-5.65,2.78-.53.65v1.38l.65.56,5.52-.29v16.25c0,1.59-.07,3.92-.2,7.12-.13,3.12-.25,4.97-.35,5.51-.09.49-.24.84-.46,1.06-.21.22-.47.36-.79.43-.26.06-1.31.17-4.86.38h-.14s-.58.56-.58.56v2.12l.58.63h.18c3.96-.24,7.58-.35,10.76-.35,2.48,0,4.89.06,7.18.17,2.54.11,4.3.17,5.25.17h.17l.57-.62v-2.12l-.58-.56h-.15c-3.42-.09-5.47-.19-6.09-.3-.56-.1-.97-.26-1.2-.47-.22-.2-.39-.55-.49-1.04-.08-.38-.21-1.69-.37-5.74-.14-3.34-.2-5.4-.2-6.3v-17l8.88.04c.26,0,.84.01,1.73.04h.17s.59-.63.59-.63l.86-4.08-.65-.77h-.19c-2.19.19-4.54.27-6.99.27h-4.41v-8.55c0-3.16.2-5.45.61-6.81.39-1.31,1.09-2.22,2.14-2.79,1.07-.59,2.37-.88,3.84-.88,2.1,0,3.98.69,5.56,2.07l.17.15,1.48-.56.05-7.61-.26-.09c-2.97-.98-5.57-.81-7.51-.01Z"/><path class="cls-1" d="m1150.01,153.45c-1.55-1.16-3.42-2.03-5.54-2.59-1.62-.42-3.58-.77-5.86-1.04,4.35-1.22,7.62-3.05,9.71-5.46,2.44-2.79,3.67-5.86,3.67-9.13,0-2.57-.74-4.9-2.22-6.93-1.48-2.03-3.45-3.46-5.87-4.25-2.38-.79-5.64-1.18-9.69-1.18-1.1,0-2.85.03-5.07.09-7.31.23-11.36.34-12.38.34-2.73,0-6.7-.12-11.79-.34h-.15s-.61.5-.61.5v2.51l.58.5,3.51.27c1.01.11,1.72.24,2.13.39.38.14.67.31.87.5.12.12.29.39.4,1,.1.57.18,1.51.24,2.82.06,1.32.09,3.07.09,5.18l.04,25.61c0,2.52-.08,6.11-.25,10.98-.21,6.15-.47,7.23-.54,7.38-.13.14-.68.51-2.87,1.46l-.58.65v1.72l.59.57h.17c2.94-.24,5.45-.36,7.44-.36.34,0,2.82.05,6.43.13,3.56.14,5.74.21,6.46.21,3.54,0,6.54-.31,8.93-.92,2.4-.61,4.77-1.61,7.05-2.97,2.29-1.37,4.27-3.03,5.89-4.95,1.62-1.93,2.75-3.9,3.36-5.87.61-1.96.91-3.91.91-5.81,0-2.43-.46-4.6-1.36-6.46-.9-1.85-2.15-3.39-3.71-4.56Zm-28.61-.78c1.76-.1,3.22-.15,4.45-.15,7.94,0,13.15,1.22,15.49,3.62,2.35,2.4,3.54,5.66,3.54,9.67,0,2.68-.57,5.2-1.68,7.49-1.11,2.26-2.86,4.06-5.19,5.33-2.34,1.29-5.65,1.94-9.84,1.94-2.27,0-4.52-.24-6.69-.7l-.09-12.85v-14.35Zm17.3-7.24c-2.33,2.05-6.58,3.1-12.63,3.1-1.72,0-3.29-.05-4.67-.15v-7.41c0-6.15.12-10.6.37-13.22,2.02-.39,4.37-.58,6.98-.58,3.33,0,6,.4,7.93,1.18,1.9.77,3.3,1.88,4.18,3.32.88,1.45,1.33,3.23,1.33,5.3,0,3.58-1.18,6.42-3.5,8.47Z"/><path class="cls-1" d="m1206.57,181.77c-2.8,0-3.59-.18-3.81-.28-.37-.18-.66-.49-.88-.95-.16-.33-.36-1.34-.43-4.3-.14-6.26-.23-10.11-.23-10.56v-7.59c0-5.78.17-10.6.49-14.33l.02-.23-1.2-.79-.18.07c-3.86,1.48-8.67,2.56-14.31,3.21h-.13s-.56.56-.56.56v2.19l.64.55,3.9.04c1.36,0,1.91.15,2.14.27.29.16.45.4.5.74.05.31.14,1.2.28,3.63.12,2.03.18,3.56.18,4.68v4.65l-.14,4.83c-.07,2.91-.22,3.91-.34,4.24-.11.33-.55,1.1-2.02,2.9-1.16,1.44-2.63,2.57-4.35,3.37-1.73.79-3.68,1.19-5.79,1.19-1.9,0-3.55-.37-4.92-1.1-1.37-.73-2.29-1.74-2.85-3.11-.56-1.39-.84-3.92-.84-7.53v-10.05c0-5.77.16-10.59.49-14.33l.02-.23-1.2-.79-.18.07c-3.85,1.48-8.67,2.56-14.31,3.21h-.13s-.57.56-.57.56v2.19l.64.55,3.9.04c1.42,0,1.95.17,2.14.28.29.16.45.4.5.74.07.43.16,1.62.28,3.63.12,1.97.18,3.54.18,4.68v8.41l-.04,3.41c0,4.5.39,7.59,1.19,9.44.81,1.87,2.19,3.35,4.13,4.41,1.91,1.05,4.6,1.58,7.99,1.58,2.23,0,4.26-.31,6.03-.93,1.78-.62,3.17-1.41,4.12-2.33,2.12-2.07,4.05-3.79,5.76-5.12-.09,1.88-.21,4.1-.37,6.64v.19s.65.57.65.57h.16c2.36-.21,4.48-.31,6.27-.31,1.42,0,4.18.11,8.43.34h.18s.58-.62.58-.62v-2.05l-.64-.55h-1.39Z"/><path class="cls-1" d="m1239.87,162.39c-1.82-.72-4.85-1.58-9.01-2.56l-4.89-1.21c-1-.22-1.97-.59-2.89-1.1-.88-.49-1.55-1.14-1.97-1.94-.43-.8-.65-1.73-.65-2.75,0-1.41.36-2.61,1.07-3.59.72-.99,1.67-1.74,2.83-2.22,1.18-.5,2.67-.75,4.44-.75s3.35.28,4.88.82c1.52.54,2.71,1.2,3.53,1.99.81.76,1.32,1.48,1.51,2.12.2.67.36,1.88.48,3.6v.14s.63.6.63.6h2.1l.63-.61v-.16c.06-4.84.21-7.86.44-8.98l.03-.16-.55-.83-.11-.04c-1.24-.49-3.06-1.02-5.43-1.55-2.37-.54-4.6-.81-6.61-.81-4.8,0-8.87,1.19-12.1,3.55-3.26,2.38-4.92,5.59-4.92,9.56,0,1.65.31,3.19.93,4.57.62,1.39,1.53,2.57,2.7,3.53,1.17.95,2.4,1.63,3.66,2.03,1.23.39,3.34.92,6.47,1.63,3.54.8,6.02,1.49,7.38,2.07,1.31.55,2.31,1.27,2.96,2.12.63.83.95,1.83.95,2.98,0,2.18-.89,4-2.71,5.58-1.81,1.57-4.28,2.37-7.33,2.37-2.16,0-4.37-.42-6.57-1.25-2.14-.8-3.67-1.84-4.56-3.09-.23-1.68-.37-3.73-.43-6.08v-.16s-.63-.6-.63-.6h-2.23l-.63.6v.16c-.03,2.89-.06,4.81-.09,5.71-.03.88-.12,1.77-.26,2.65l-.45,2.89-.02.1.33.84.19.05c1.98.49,4.39.94,7.17,1.34,2.79.41,5.16.61,7.05.61,5.4,0,9.89-1.47,13.35-4.36,3.48-2.91,5.24-6.44,5.24-10.51,0-2.14-.52-3.99-1.54-5.5-1.02-1.51-2.49-2.65-4.36-3.4Z"/><path class="cls-1" d="m1270.23,181.68c-3.5-.21-4.53-.31-4.78-.36-.32-.06-.58-.19-.79-.4-.21-.21-.38-.56-.5-1.06-.09-.38-.23-1.72-.37-5.94-.12-3.34-.18-5.44-.18-6.09v-9.74c0-5.75.17-10.57.49-14.33l.02-.23-1.2-.79-.18.07c-3.85,1.48-8.67,2.56-14.31,3.21h-.13s-.57.56-.57.56v2.19l.64.55,3.9.04c1.36,0,1.91.15,2.14.27.29.16.45.4.51.74.07.43.16,1.62.28,3.63.12,1.97.18,3.54.18,4.68v8.5c0,1.59-.07,3.92-.2,7.12-.13,3.12-.25,4.97-.35,5.51-.09.48-.25.83-.47,1.05-.23.23-.5.37-.81.44-.25.06-1.28.17-4.83.38h-.12s-.64.55-.64.55v2.15l.64.62h.17c3.72-.24,7.32-.35,10.71-.35s7.03.12,10.75.34h.18s.58-.62.58-.62v-2.13l-.64-.54h-.12Z"/><path class="cls-1" d="m1260.07,133.97c1.5,0,2.79-.51,3.84-1.53,1.06-1.02,1.59-2.26,1.59-3.68s-.53-2.7-1.59-3.72c-1.05-1.02-2.34-1.53-3.84-1.53s-2.75.51-3.82,1.53c-1.07,1.02-1.62,2.27-1.62,3.72s.55,2.7,1.62,3.71c1.07,1,2.35,1.51,3.82,1.51Z"/><path class="cls-1" d="m1325.12,181.68c-3.96,0-5.01-.42-5.29-.68-.27-.25-.74-1.18-.81-4.6-.15-6.41-.23-10.22-.23-10.73v-7.59c0-2.47-.21-4.57-.64-6.26-.43-1.72-1.22-3.23-2.34-4.49-1.12-1.26-2.79-2.36-4.97-3.27-3.46-1.44-7.27-1.71-10.76-.93-1.32.3-2.25.57-2.83.85-.58.27-1.2.7-1.86,1.27-1.94,1.76-4,3.53-6.15,5.25.06-2.72.18-4.99.34-6.75l.02-.23-1.2-.79-.18.07c-3.85,1.48-8.67,2.56-14.31,3.21h-.13s-.56.56-.56.56v2.19l.64.55,3.9.04c1.36,0,1.91.15,2.14.27.29.16.45.4.5.74.05.31.14,1.2.28,3.63.12,2.03.18,3.56.18,4.68v8.5c0,1.59-.07,3.92-.2,7.12-.16,3.86-.28,5.13-.35,5.51-.09.48-.25.83-.47,1.05-.23.22-.5.37-.8.44-.25.06-1.28.17-4.83.38h-.12s-.64.55-.64.55v2.15l.64.62h.17c3.72-.24,7.32-.35,10.71-.35s7.04.12,10.76.34h.18s.58-.62.58-.62v-2.13l-.64-.54h-.12c-3.5-.22-4.53-.32-4.78-.37-.32-.06-.58-.19-.79-.4-.21-.21-.38-.56-.5-1.06-.13-.54-.25-2.54-.37-5.94-.12-3.34-.18-5.44-.18-6.09v-7.5c0-2.26.07-3.75.2-4.43.12-.64.49-1.35,1.11-2.12.63-.78,1.62-1.64,2.96-2.55,1.33-.91,2.54-1.51,3.6-1.8,1.06-.29,2.36-.44,3.88-.44,1.87,0,3.5.33,4.84.97,1.34.65,2.42,1.56,3.21,2.72.8,1.17,1.28,2.48,1.44,3.9.16,1.48.24,3.94.24,7.29v5.65c0,5.95-.2,10.85-.58,14.58l-.02.19.8.71h.16c3.62-.24,5.75-.35,6.51-.35,1.33,0,3.84.11,7.67.34h.17s.59-.56.59-.56v-2.18l-.58-.56h-.15Z"/><path class="cls-1" d="m1357.82,144.97c-2.77-1.65-6.02-2.49-9.65-2.49-2.65,0-5.17.44-7.47,1.32-2.29.87-4.48,2.05-6.52,3.49-2.05,1.46-3.53,2.81-4.4,4.01-.87,1.2-1.71,3.06-2.49,5.52-.78,2.45-1.18,5.24-1.18,8.29,0,4.59,1.04,8.58,3.07,11.84,2.05,3.27,4.74,5.63,8,7,3.24,1.37,6.71,2.06,10.32,2.06,1.93,0,4.15-.29,6.59-.87,2.45-.58,5.28-1.86,8.41-3.8l.09-.06,1.59-3.45-1.1-1.13-.26.15c-2.1,1.22-4.14,2.18-6.04,2.86-1.87.67-3.86,1.01-5.89,1.01-4.29,0-7.97-1.39-10.92-4.12-2.88-2.67-4.4-6.87-4.52-12.49h13.97c1.1,0,3.4-.07,6.81-.21,3.43-.15,6.21-.44,8.25-.87l.1-.02.67-.65v-.14c.11-.84.15-1.73.15-2.63,0-2.88-.57-5.64-1.69-8.21-1.13-2.6-3.12-4.75-5.9-6.41Zm-1.35,13.98c0,.31-.01.73-.03,1.26-1.07.11-3.49.17-7.19.17-1.68,0-4.29-.06-7.97-.17-3.05-.1-5-.19-5.82-.26.04-4.52,1.02-7.98,2.88-10.29,1.9-2.34,4.59-3.52,8-3.52,3.12,0,5.61,1.05,7.4,3.13,1.81,2.09,2.73,5.35,2.73,9.69Z"/><path class="cls-1" d="m1396.88,162.39c-1.82-.72-4.85-1.58-9.01-2.56l-4.89-1.21c-1-.22-1.97-.59-2.89-1.1-.88-.49-1.55-1.14-1.97-1.94-.43-.8-.65-1.73-.65-2.75,0-1.41.36-2.61,1.07-3.59.72-.99,1.67-1.74,2.83-2.22,1.18-.5,2.67-.75,4.44-.75s3.35.28,4.88.82c1.52.54,2.71,1.2,3.53,1.99.81.76,1.32,1.48,1.51,2.12.2.67.36,1.88.48,3.6v.14s.63.6.63.6h2.1l.63-.61v-.16c.06-4.84.21-7.86.44-8.98l.03-.16-.55-.83-.11-.04c-1.24-.49-3.06-1.02-5.43-1.55-2.37-.54-4.6-.81-6.61-.81-4.8,0-8.87,1.19-12.1,3.55-3.26,2.38-4.92,5.59-4.92,9.56,0,1.65.31,3.19.93,4.57.62,1.39,1.53,2.57,2.7,3.53,1.17.95,2.4,1.63,3.66,2.03,1.23.39,3.34.92,6.47,1.63,3.54.8,6.02,1.49,7.38,2.07,1.31.55,2.31,1.27,2.96,2.12.63.83.95,1.83.95,2.98,0,2.18-.89,4-2.71,5.58-1.81,1.57-4.28,2.37-7.33,2.37-2.16,0-4.37-.42-6.57-1.25-2.14-.8-3.67-1.84-4.56-3.09-.23-1.68-.37-3.73-.43-6.08v-.16s-.63-.6-.63-.6h-2.23l-.63.6v.16c-.03,2.89-.06,4.81-.09,5.71-.03.88-.12,1.77-.26,2.65l-.45,2.89-.02.1.33.84.19.05c1.98.49,4.39.94,7.17,1.34,2.79.41,5.16.61,7.05.61,5.4,0,9.89-1.47,13.35-4.36,3.48-2.91,5.24-6.44,5.24-10.51,0-2.14-.52-3.99-1.54-5.5-1.02-1.51-2.49-2.65-4.36-3.4Z"/><path class="cls-1" d="m1438.78,165.78c-1.02-1.51-2.49-2.65-4.36-3.4-1.82-.72-4.85-1.58-9.01-2.56l-4.89-1.21c-1-.22-1.97-.59-2.89-1.1-.88-.49-1.55-1.14-1.97-1.94-.43-.8-.65-1.73-.65-2.75,0-1.41.36-2.61,1.07-3.59.72-.99,1.67-1.74,2.83-2.22,1.18-.5,2.67-.75,4.44-.75s3.35.28,4.88.82c1.52.54,2.71,1.2,3.53,1.99.81.76,1.32,1.48,1.51,2.12.2.67.36,1.88.48,3.6v.14s.63.6.63.6h2.1l.63-.61v-.16c.06-4.84.21-7.86.44-8.98l.03-.16-.55-.83-.11-.04c-1.24-.49-3.06-1.02-5.43-1.55-2.37-.54-4.6-.81-6.61-.81-4.8,0-8.87,1.19-12.1,3.55-3.26,2.38-4.92,5.59-4.92,9.56,0,1.65.31,3.19.93,4.57.62,1.39,1.53,2.57,2.7,3.53,1.17.95,2.4,1.63,3.66,2.03,1.23.39,3.34.92,6.47,1.63,3.54.8,6.02,1.49,7.38,2.07,1.31.55,2.31,1.27,2.96,2.12.63.83.95,1.83.95,2.98,0,2.18-.89,4-2.71,5.58-1.81,1.57-4.28,2.37-7.33,2.37-2.16,0-4.37-.42-6.57-1.25-2.14-.8-3.67-1.84-4.56-3.09-.23-1.68-.37-3.73-.43-6.08v-.16s-.63-.6-.63-.6h-2.23l-.63.6v.16c-.03,2.89-.06,4.81-.09,5.71-.03.88-.12,1.77-.26,2.65l-.45,2.89-.02.1.33.84.19.05c1.98.49,4.39.94,7.17,1.34,2.79.41,5.16.61,7.05.61,5.4,0,9.89-1.47,13.35-4.36,3.48-2.91,5.24-6.44,5.24-10.51,0-2.14-.52-3.99-1.54-5.5Z"/><path class="cls-1" d="m270.74,78.15l-.28.19c-1.28.89-2.63,1.65-4.01,2.26-1.38.61-3.15,1.14-5.24,1.55-2.09.42-4.31.63-6.59.63-5.14,0-9.69-1.01-13.53-3-3.83-1.99-6.9-4.88-9.11-8.58-2.22-3.71-3.34-8.08-3.34-13s.95-9.09,2.84-12.47c1.88-3.36,4.56-5.97,7.95-7.75,3.42-1.78,7.33-2.68,11.64-2.68,2.86,0,5.65.41,8.29,1.2,2.58.78,4.8,1.87,6.63,3.24l.39,6.36.52.5h2.15l.46-.51v-.12c.52-5.47,1.08-8.93,1.66-10.3l.08-.19-.45-.63-.09-.04c-2.27-.98-5.14-1.84-8.53-2.54-3.39-.7-6.86-1.06-10.33-1.06-6,0-11.49,1.08-16.3,3.21-4.83,2.13-8.78,5.4-11.73,9.71s-4.45,9.42-4.45,15.18c0,8.37,3,15.24,8.91,20.42,5.9,5.17,13.67,7.8,23.1,7.8,6.57,0,12.84-1.44,18.63-4.28l.12-.06,1.62-3.83-1.02-1.22Z"/><path class="cls-1" d="m281.9,84.72c2.91,1.92,6.25,2.9,9.95,2.9,5.63,0,10.51-1.9,14.5-5.66,3.99-3.76,6.02-8.62,6.02-14.43,0-5.29-1.77-9.69-5.26-13.06-3.48-3.37-8.06-5.08-13.58-5.08-4.39,0-8.24,1.04-11.44,3.08-3.2,2.04-5.48,4.51-6.78,7.33-1.29,2.8-1.95,5.76-1.95,8.78,0,3.25.7,6.3,2.08,9.07,1.39,2.78,3.56,5.16,6.46,7.08Zm9.95-32.09c3.93,0,6.97,1.66,9.06,4.94,2.12,3.33,3.2,7.68,3.2,12.92,0,4.6-.98,8.08-2.91,10.34-1.92,2.25-4.38,3.39-7.32,3.39-2.5,0-4.75-.82-6.7-2.43-1.96-1.63-3.42-3.81-4.33-6.51-.92-2.72-1.38-5.85-1.38-9.3,0-4.33.93-7.67,2.76-9.95,1.81-2.25,4.38-3.4,7.62-3.4Z"/><path class="cls-1" d="m345.01,50.24c-2.02-.9-4.4-.93-6.55-.16-1.03.37-1.94.89-2.7,1.55-.75.65-1.63,1.58-2.6,2.77l-2.25,2.74c.08-3.11.19-5.34.32-6.64l.03-.22-1.08-.72-.18.07c-3.37,1.29-7.56,2.23-12.46,2.79h-.12s-.51.51-.51.51v1.94l.58.5,3.41.04c1.18,0,1.66.13,1.85.24.24.13.37.33.42.62.04.28.12,1.06.25,3.16.1,1.72.16,3.09.16,4.08v7.4c0,1.42-.06,3.5-.18,6.2-.15,3.53-.25,4.52-.3,4.8-.08.41-.21.71-.4.89-.2.19-.42.31-.68.38-.21.05-1.11.14-4.21.33h-.12s-.57.5-.57.5v1.9l.58.56h.16c7.29-.46,13.99-.36,20.15,0h.16s.58-.55.58-.55v-1.9l-.57-.49h-.12c-3.28-.18-5.13-.31-5.51-.38-.33-.06-.6-.18-.8-.35-.19-.16-.33-.43-.43-.81-.08-.29-.2-1.4-.32-4.99-.1-2.91-.16-4.76-.16-5.51v-4.17c0-2.24.2-4.11.59-5.56.38-1.41,1.15-2.6,2.28-3.53,1.12-.93,2.46-1.4,3.97-1.4,2.18,0,3.71,1.06,4.69,3.24l.1.22h2.35v-.36c.06-2.51.3-5.46.71-8.75v-.11s-.37-.74-.37-.74l-.12-.05Z"/><path class="cls-1" d="m354.04,55.42c1.18,0,1.66.13,1.85.24.24.13.37.33.42.62.06.38.15,1.44.25,3.16.11,1.7.16,3.07.16,4.08v7.4c0,1.37-.06,3.4-.18,6.2-.12,2.72-.22,4.33-.31,4.8-.08.41-.21.71-.4.89-.2.19-.42.31-.68.38-.21.05-1.11.15-4.21.33h-.12s-.57.5-.57.5v1.9l.58.56h.16c3.22-.21,6.36-.31,9.33-.31s6.14.1,9.37.3h.18s.53-.56.53-.56v-1.89l-.57-.49h-.12c-3.04-.19-3.94-.28-4.16-.32-.27-.05-.49-.16-.67-.33-.18-.18-.32-.48-.42-.91-.11-.47-.22-2.21-.32-5.17-.1-2.91-.16-4.74-.16-5.31v-6.54c0-1.96.06-3.26.17-3.86.1-.55.43-1.17.96-1.83.55-.68,1.41-1.43,2.57-2.22,1.16-.79,2.21-1.31,3.13-1.56.93-.25,2.06-.38,3.37-.38,1.62,0,3.03.28,4.2.85,1.16.56,2.09,1.35,2.78,2.36.69,1.01,1.11,2.15,1.24,3.39.14,1.29.21,3.43.21,6.35v4.92c0,5.22-.17,9.49-.5,12.7l-.02.19.72.64h.15c3.1-.21,5-.31,5.67-.31,1.16,0,3.4.1,6.68.3h.16s.54-.51.54-.51v-1.93l-.53-.51h-.15c-3.44,0-4.35-.36-4.58-.58-.23-.21-.64-1.01-.7-3.98-.14-6.15-.2-8.95-.2-9.35v-6.62c0-2.15-.19-3.99-.56-5.46-.37-1.5-1.06-2.82-2.05-3.93-.99-1.1-2.45-2.06-4.35-2.86-3.02-1.26-6.32-1.5-9.4-.81-1.16.26-1.97.5-2.47.74-.51.24-1.06.61-1.63,1.11-1.64,1.49-3.42,3.01-5.29,4.53.05-2.36.16-4.31.29-5.8l.02-.22-1.08-.71-.18.07c-3.37,1.29-7.56,2.23-12.46,2.79h-.12s-.51.51-.51.51v1.94l.58.5,3.41.04Z"/><path class="cls-1" d="m405.86,85.56c2.83,1.19,5.86,1.79,9.01,1.79,1.68,0,3.62-.26,5.76-.76,2.14-.51,4.61-1.62,7.34-3.32l.09-.06,1.4-3.03-1-1.02-.25.14c-1.84,1.06-3.61,1.9-5.26,2.49-1.63.58-3.35.88-5.12.88-3.73,0-6.93-1.21-9.49-3.59-2.5-2.31-3.82-5.95-3.93-10.82h12.14c.99,0,3.05-.06,5.94-.19,3-.13,5.42-.38,7.2-.76l.1-.02.6-.58v-.13c.09-.75.14-1.52.14-2.29,0-2.51-.49-4.93-1.47-7.17-.99-2.27-2.72-4.15-5.16-5.6-2.42-1.44-5.26-2.18-8.43-2.18-2.32,0-4.51.39-6.52,1.15-2,.76-3.91,1.79-5.69,3.05-1.79,1.27-3.08,2.45-3.85,3.51-.76,1.06-1.49,2.68-2.18,4.82-.68,2.14-1.03,4.58-1.03,7.23,0,4.01.9,7.49,2.68,10.34,1.79,2.86,4.14,4.92,6.99,6.12Zm-1.45-21c.04-3.91.89-6.91,2.51-8.91,1.65-2.03,3.99-3.06,6.95-3.06,2.71,0,4.87.91,6.42,2.71,1.57,1.81,2.37,4.65,2.37,8.42,0,.26,0,.62-.03,1.06-.96.1-3.05.15-6.23.15-1.53,0-3.86-.05-6.94-.15-3.08-.1-4.45-.17-5.04-.23Z"/><path class="cls-1" d="m432.97,35.54c3.54,0,4.42.09,4.62.14.38.1.55.23.62.32.03.04.18.3.29,1.72.09,1.06.18,2.95.25,5.76l.16,7.96v19.46c0,1.37-.06,3.4-.18,6.2-.12,2.72-.22,4.33-.31,4.8-.08.41-.21.71-.4.89-.2.19-.42.31-.68.38-.21.05-1.11.15-4.21.33h-.12s-.57.5-.57.5v1.9l.58.56h.16c3.22-.21,6.36-.31,9.33-.31s6.14.1,9.37.3h.18s.53-.56.53-.56v-1.89l-.57-.49h-.12c-3.04-.19-3.94-.28-4.16-.32-.27-.05-.49-.16-.67-.33-.18-.18-.32-.48-.42-.91-.11-.47-.22-2.21-.32-5.17-.1-2.91-.16-4.74-.16-5.31v-23.56c0-8.61.14-14.43.43-17.29l.02-.23-1.09-.67-.17.06c-3.37,1.29-7.56,2.21-12.46,2.76h-.14s-.5.56-.5.56v1.88l.57.55h.15Z"/><path class="cls-1" d="m455.86,35.54c3.54,0,4.42.09,4.62.14.38.1.55.23.62.32.03.04.18.3.29,1.72.09,1.06.18,2.95.25,5.76l.16,7.96v19.46c0,1.37-.06,3.4-.18,6.2-.12,2.72-.22,4.33-.31,4.8-.08.41-.21.71-.4.89-.2.19-.42.31-.68.38-.21.05-1.11.15-4.21.33h-.12s-.57.5-.57.5v1.9l.58.56h.16c3.22-.21,6.36-.31,9.33-.31s6.14.1,9.37.3h.18s.53-.56.53-.56v-1.89l-.57-.49h-.12c-3.04-.19-3.94-.28-4.16-.32-.27-.05-.49-.16-.67-.33-.18-.18-.32-.48-.42-.91-.11-.47-.22-2.21-.32-5.17-.1-2.91-.16-4.74-.16-5.31v-23.56c0-8.61.14-14.43.43-17.29l.02-.23-1.09-.67-.17.06c-3.37,1.29-7.56,2.21-12.46,2.76h-.14s-.5.56-.5.56v1.88l.57.55h.15Z"/><path class="cls-1" d="m154.06,128.4l-.36.44,2.66.88.16-.3c.44-.77.83-1.66,1.03-2.36.4-1.34.35-2.57-.15-3.56-.47-.92-1.32-1.6-2.4-1.92-2.28-.68-4.12.34-4.77,2.54-.06.21-.11.39-.13.56l-1.34-.42,1.16-3.93-2.28-.67-1.96,6.6,6.33,2.02v-.55c0-.61.08-1.2.25-1.79.16-.55.75-1.89,1.97-1.54,1.3.4,1,1.79.88,2.22-.23.77-.68,1.32-1.07,1.79m-6.06,8.36c-.07-.21-.05-.41.06-.65.17-.34.45-.51.86-.51.31,0,.67.1,1.04.28.49.25.84.59.96.94.07.21.05.42-.06.63-.18.37-.47.56-.88.56-.28,0-.6-.09-.93-.27-.56-.27-.94-.63-1.06-.98m-1.57,2.93c1.27.65,2.36.96,3.32.96,1.45,0,2.54-.72,3.25-2.14,1.11-2.22.36-4.19-2.03-5.4-1.98-.99-3.86-.4-4.81,1.51-.27.53-.38,1.06-.33,1.57-.71-.58-1.35-1.49-.8-2.6.28-.57.65-.95,1.11-1.35l.39-.33-2.1-1.51-.24.23c-.59.57-1.04,1.2-1.41,1.93-.56,1.14-.67,2.24-.32,3.31.61,1.84,2.5,3.11,3.96,3.83m-6.08,5.44c-.4.26-.83.48-1.21.48-.19,0-.34-.04-.48-.15-.56-.42-.28-1.12-.03-1.46.19-.27.43-.39.69-.39.19,0,.4.08.61.22.35.26.49.86.42,1.3m1.83,1.81c.82-.54,1.42-.62,1.93-.25.24.18.37.4.41.66.04.27-.05.57-.26.86-.39.53-1.12.68-1.61.31-.45-.34-.6-.8-.48-1.58m-2.45,1.12c-.07,1.24.33,2.18,1.22,2.83.64.48,1.31.72,1.99.72,1.15,0,2.29-.7,3.25-1.98.8-1.08,1.15-2.18,1-3.16-.13-.84-.6-1.57-1.41-2.17-.96-.7-2.02-.82-3.21-.35.02-1.13-.56-2.09-1.25-2.61-1.42-1.05-3.33-.45-4.72,1.43-1.38,1.86-1.26,3.76.33,4.94.79.58,1.82.72,2.81.36m-9.95,6.7l2.5.34.21-1.86,5.46,5.53,2.08-2.05-8.02-8.14-1.72,1.7-.51,4.49Zm-1.65,8.48l-2.41,1.67,1.68,2.4,2.4-1.67-1.67-2.41Zm-12.19.42l.69-.37c.46-.26.97-.39,1.5-.39,1.15,0,2.16.65,2.76,1.76,1.01,1.87.17,3.61-1.17,4.33l-.69.37-3.09-5.7Zm-3.75-.79l5.45,10.05,2.89-1.57c3.8-2.06,4.81-4.79,3.01-8.12-1.79-3.31-4.66-3.99-8.45-1.93l-2.9,1.57Zm.07,9l-2.73,1,.99,2.75,2.75-.99-1-2.76Zm-11.8,1.38l.36-2.98,1.56,2.57-1.92.41Zm-1.8-6.29l-1.94,12.1,2.99-.65.39-2.57,3.67-.8,1.4,2.2,3.13-.68-6.77-10.22-2.88.61Zm-17.12,9.8l.37-6.48.77.04c1.54.08,3.03,1.29,2.92,3.4-.13,2.2-1.79,3.15-3.28,3.07l-.78-.03Zm-2.41-9.13l-.64,11.42,3.28.19c.26.01.5.01.76.01,3.83,0,5.87-1.8,6.08-5.35.1-1.76-.3-3.16-1.2-4.16-1.03-1.15-2.66-1.79-4.97-1.91l-3.3-.19Zm-10.62-2.52l-2.95,11.05,6.84,1.81.64-2.38-4.03-1.08.57-2.12,3.65.98.65-2.38-3.66-.98.46-1.77,3.99,1.06.65-2.38-6.81-1.83Zm-13.61,3.81l2.91-5.81.71.35c.73.38,1.3,1.02,1.55,1.79.25.79.17,1.66-.25,2.5-.6,1.19-1.61,1.86-2.81,1.86-.49,0-.97-.11-1.41-.35l-.7-.34Zm1.42-9.33l-5.14,10.22,2.94,1.47c1.41.72,2.65,1.06,3.79,1.06,1.98,0,3.53-1.08,4.61-3.23,1.7-3.38.6-6.1-3.26-8.04l-2.94-1.48Zm-10.67-8.16l-7.25,8.85,2.2,1.78,4.28-5.22-1.61,7.41,2.49,2.05,7.25-8.85-2.19-1.79-4.28,5.22,1.63-7.38-2.53-2.06Zm-14.24-5.71c-1.17.93-1.8,1.98-1.85,3.11-.05,1.05.39,2.18,1.33,3.35,1.11,1.4,2.29,2.1,3.55,2.1.93,0,1.87-.38,2.84-1.14l5.63-4.48-1.82-2.29-5.12,4.07c-1.38,1.11-2.37,1.2-3.16.21-.33-.41-.46-.81-.41-1.2.07-.57.52-1.18,1.34-1.83l5.11-4.07-1.82-2.28-5.62,4.47Zm-7.13-10.11c.27-.78,1.04-1.54,2.12-2.07.67-.33,1.37-.51,2-.51,1.02,0,1.76.44,2.18,1.32.29.61.34,1.2.15,1.77-.27.79-1.02,1.55-2.06,2.05-.72.35-1.44.55-2.08.55-.99,0-1.71-.46-2.15-1.34-.29-.6-.35-1.2-.16-1.76m-2.48-1.38c-.45,1.31-.3,2.77.42,4.23,1.01,2.05,2.69,3.18,4.75,3.18.98,0,2.01-.27,3.03-.77,1.63-.8,2.74-1.96,3.22-3.36.45-1.32.31-2.78-.42-4.25-1.01-2.05-2.68-3.19-4.7-3.19-.97,0-1.99.26-3.02.77-1.67.82-2.81,2-3.28,3.4m5.93-14.33l-10.99,3.17.82,2.79,4.48-1.29,1,3.45,2.37-.68-.99-3.45,1.75-.51,1.06,3.62,2.37-.69-1.85-6.43Zm-9.67-22.08l-2.69-.39-.13.27c-.34.73-.57,1.66-.63,2.48-.23,3.85,1.89,6.29,5.69,6.53.17,0,.34,0,.51,0,3.31,0,5.34-2.11,5.58-5.79.04-.73-.02-1.52-.19-2.51l-.06-.33-2.73-.02.26.56c.2.43.31,1.36.27,2.13-.13,1.92-1.57,3.08-3.59,2.94-2.06-.13-3.37-1.46-3.26-3.33.04-.61.14-1.28.65-2.03l.33-.53Zm3.99-12.07c.45,0,.93.07,1.41.2,1.16.33,2.06.94,2.46,1.67.29.51.34,1.09.17,1.73-.42,1.43-1.6,1.73-2.54,1.73-.47,0-.97-.08-1.5-.22-1.5-.43-3.08-1.57-2.56-3.38.4-1.42,1.62-1.72,2.56-1.72m.19-2.97c-2.53,0-4.39,1.46-5.11,4.01-.94,3.29.65,5.94,4.12,6.94.73.2,1.45.31,2.12.31,2.51,0,4.37-1.47,5.1-4.02.43-1.52.31-2.97-.36-4.17-.73-1.32-2.06-2.27-3.83-2.78-.71-.2-1.4-.29-2.04-.29m4.88-8.98c.14.47-.17,1.12-.41,1.58l-.15.26-1.83-.98.14-.25c.46-.86.96-1.56,1.74-1.15.28.15.44.33.51.54m.73-3.27c-.57-.3-1.12-.45-1.63-.45-1.85,0-2.83,1.86-3.69,3.51l-1.32,2.48,10.09,5.38,1.36-2.56-3.9-2.09.12-.23c.37-.7.64-.64,1.25-.57l3.8.49,1.5-2.84-5.06-.53c-.34-.03-.71,0-.99.05.04-1.07-.51-2.09-1.54-2.63m15.32-6.69l-8.79-7.3-1.79,2.17,5.18,4.29-7.34-1.69-2.07,2.48,8.8,7.29,1.79-2.16-5.19-4.3,7.35,1.68,2.05-2.47Zm2.36-8.29l2.91-2.36-1.57-1.92-2.89,2.36-1.15-1.42,3.17-2.57-1.56-1.92-5.41,4.41,7.21,8.87,5.44-4.42-1.56-1.92-3.19,2.6-1.39-1.7Zm15.62-4.64l-1.22-2.16-3.53,1.99-4.4-7.8-2.53,1.43,5.6,9.95,6.08-3.41Zm3.03-1.3l6.56-2.37-.85-2.32-3.82,1.39-3.05-8.42-2.72.99,3.88,10.74Zm22.22-5.77c.68-.8.97-1.93.84-3.32l-.59-7.17-2.89.24.54,6.52c.19,2.3-.74,2.67-1.56,2.75-.07,0-.14.01-.21.01-.68,0-1.6-.25-1.79-2.47l-.53-6.51-2.89.24.59,7.17c.22,2.65,1.71,4.05,4.32,4.05.23,0,.46-.01.7-.04,1.59-.14,2.74-.63,3.46-1.47m6.63,83.01c-.36-.04-.67-.05-.97-.04l.08,2.64c.18,0,.38,0,.62.03.47.04.91.1,1.32.13.83.1,1.54.16,2.17.19l1.1.03c1.12.03,2.37.06,2.8.07l.05-2.65c-.44,0-1.68-.03-2.78-.07l-1.1-.02c-.56-.02-1.21-.1-1.95-.17-.44-.05-.89-.1-1.34-.14m7.12-4.28l.06-2.64-1.02-.04c-.88-.01-2.07-.05-2.88-.06-.56-.02-1.19-.09-1.92-.16-.44-.05-.91-.1-1.38-.13-.34-.04-.66-.04-.95-.04l.04,2.64c.19,0,.4,0,.65.03.49.04.94.09,1.36.14.81.08,1.52.16,2.14.18.81,0,1.99.04,2.87.06l1.02.03Zm-7.16-10.37c-.34-.04-.67-.04-.97-.03l.12,2.64c.18-.01.38,0,.6.02l1.26.13c.85.1,1.59.16,2.24.18l3.89.11.06-2.66-3.89-.1c-.58-.02-1.25-.08-2.02-.17l-1.29-.13Zm-13.56,14.91c-1.23.03-3.18.1-3.75.11l.05,2.64c.57-.01,2.54-.07,3.9-.1.65-.02,1.38-.1,2.24-.19l1.28-.13c.19-.03.39-.03.57-.03l.04-2.64c-.28,0-.59,0-.88.03l-1.31.13c-.77.09-1.43.16-2.14.18m4.27-12.34l.04-2.64c-.28,0-.58.01-.89.04-.47.04-.9.1-1.31.14-.76.08-1.42.15-2.01.16l-3.89.1.07,2.66,3.89-.1c.64-.01,1.38-.1,2.24-.2.4-.04.82-.08,1.27-.13.21-.01.42-.03.6-.03m-.02,7.34l.12-2.65c-.28-.01-.59,0-.93.03l-1.3.13c-.77.09-1.43.16-2.02.17l-3.89.1.06,2.66,3.89-.11c.66-.01,1.39-.1,2.24-.19l1.24-.12c.2-.02.4-.03.58-.02m14.13-46.55h13.96c.01,2.07.02,4.42.02,6.36l-7.36-4.91-6.62,4.78c0-1.9,0-4.19,0-6.23m0,9.49l6.67-4.82,7.29,4.86c0,.41,0,.67-.01.77-.01.68-.88,1.4-1.61,1.9-1.68,1.12-4.21,2.55-5.4,3.21-1.12-.67-3.49-2.09-5.16-3.21-.52-.35-1.73-1.24-1.78-2.01,0-.07,0-.32,0-.7m-2.65-10.81c0,5.17,0,11.38.02,11.7.11,1.44,1.07,2.75,2.95,4.01,2.33,1.56,5.8,3.6,5.94,3.68l.65.38.65-.36c.16-.09,3.91-2.13,6.26-3.7,2.74-1.83,2.78-3.48,2.78-4.03.02-.29.02-6.51,0-11.67v-1.32h-19.26v1.32Zm-28.98,7.96h13.55c0,2.06,0,3.66-.01,3.91-.02.66-.86,1.36-1.56,1.83-1.63,1.09-4.07,2.48-5.23,3.12-1.1-.66-3.39-2.03-5.02-3.13-1.06-.7-1.69-1.4-1.72-1.92,0-.19,0-1.76,0-3.81m13.55-2.65h-13.55c0-1.15,0-2.33,0-3.43h13.54c0,1.1,0,2.28,0,3.43m-16.19-4.75c0,4.11-.01,11.06.02,11.38.09,1.42,1.03,2.71,2.88,3.94,2.28,1.53,5.66,3.51,5.8,3.6l.65.38.65-.36c.16-.09,3.81-2.08,6.09-3.62,2.67-1.78,2.72-3.4,2.74-3.94.02-.3.02-6.36,0-11.38v-1.32h-18.83v1.32Zm58.14,42.36c0,20.37-25.01,34.17-32.37,37.79v-18.53c.14-.13.27-.27.37-.38.37-.43.6-.69,1.31-.69,1.7.03,2.99.1,4.45.24,1.39.13,2.97.27,5.22.32,2.22.05,3.95-.04,4.02-.05l1.25-.06v-6.92h2.93v-3.69h-2.93v-6.7h2.93v-3.69h-2.94v-7.53l-1.29-.03c-.47-.01-1.02-.01-1.66,0-.9-.02-1.96,0-3.32-.04-1.06-.03-2.29-.16-3.72-.31-.83-.09-1.73-.18-2.66-.27-2-.23-3.77.14-3.87.16-.03.01-.06.02-.08.03v-7.11h32.37v17.46Zm0-21H54.22v-25.21h67.46s0,25.21,0,25.21Zm-36.72,36.54h-.08c-1.82,0-3.17.13-4.61.25-1.42.13-2.89.27-5.05.31-.99.03-1.88.01-2.56,0v-23.39h.31c.9,0,2,0,3.38-.03,1.17-.03,2.45-.17,3.94-.34.82-.08,1.69-.17,2.67-.25,1.55-.18,2.97.1,2.97.1.15.04.25.08.37.12v23.45c-.39-.14-.81-.23-1.34-.23m-30.75-33h32.09v7.04c-.52-.1-1.99-.31-3.61-.12-.96.09-1.84.18-2.68.27-1.43.15-2.66.29-3.73.31-1.35.04-2.43.04-3.32.04h-1.66l-1.29.03v6.8h-3.17v3.69h3.17v6.8h-3.17v3.68h3.17v7.56l1.24.06c.08,0,1.8.1,4.02.05,2.25-.05,3.83-.2,5.22-.32,1.44-.13,2.68-.24,4.37-.24.67-.01.89.2,1.25.65.05.06.11.13.17.2v18.58c-7.78-3.81-32.09-17.46-32.09-38.48v-16.6Zm35.11,9.89c.17-.08.37-.16.65-.23.02,0,1.45-.3,3.04-.1.95.08,1.83.16,2.65.26,1.48.15,2.76.29,3.94.32,1.18.03,2.15.03,2.98.03h.7v23.39c-.67.01-1.56.03-2.55,0-2.16-.04-3.63-.18-5.05-.3-1.45-.14-2.76-.27-4.69-.26-.68,0-1.22.15-1.67.34v-23.45Zm35.9,7.57v-49.75s-74.53,0-74.53,0v48.88c0,11.33,6.37,22.36,18.44,31.88,8.97,7.08,17.81,10.82,18.19,10.98l.68.29.68-.29c.38-.17,9.18-3.96,18.13-10.95,12.05-9.43,18.41-20.16,18.41-31.03m18.04-10.87c0,30.66-24.94,55.6-55.6,55.6s-55.6-24.94-55.6-55.6,24.94-55.6,55.6-55.6,55.6,24.95,55.6,55.6m-55.6-57.59c-31.76,0-57.59,25.83-57.59,57.59s25.83,57.6,57.59,57.6,57.59-25.84,57.59-57.6-25.83-57.59-57.59-57.59m13.33-2.61l1.53-11.33-2.78-.37-.9,6.68-2.47-7.13-3.18-.43-1.53,11.34,2.78.37.9-6.69,2.47,7.14,3.18.43Zm6.69,2.02l3.43-10.9-2.76-.88-3.43,10.92,2.76.87Zm9.2,4.01l8.54-8.49-2.61-1.32-5.51,5.61,1.22-7.78-2.76-1.41-1.7,11.96,2.81,1.41Zm16.9.77l1.53-1.95-5.5-4.3-7.04,9.01,5.53,4.32,1.53-1.94-3.25-2.53,1.35-1.74,2.94,2.31,1.53-1.94-2.95-2.31,1.12-1.44,3.22,2.52Zm6.95,7.64c0,.2-.12.39-.34.58-.21.19-.41.29-.63.29-.48,0-1-.5-1.38-.94l-.19-.22,1.55-1.37.2.22c.4.48.83,1,.78,1.44m1.79,2.71c2.46-2.17.49-4.41-.94-6.05l-1.88-2.13-8.59,7.53,1.92,2.17,3.32-2.91.19.21c.42.49.44.7.09,1.38l-1.79,3.39,2.11,2.4,2.28-4.55c.08-.16.24-.52.3-.93.98.43,2.15.23,3.01-.51m6.75,9.82l2.37-1.07-.06-.31c-.17-.81-.5-1.62-1-2.48-1.25-2.09-3.29-2.77-5.2-1.64-1.96,1.16-1.67,3.01-1.46,4.37.18,1.07.25,1.7-.25,1.99-.57.33-1.27-.23-1.58-.77-.36-.61-.56-1.37-.59-2.19l-.03-.6-2.61,1.21.18.58c.26.89.42,1.42.97,2.36.92,1.57,2.17,2.44,3.48,2.44.61,0,1.22-.17,1.83-.55,2.02-1.19,1.71-3.09,1.48-4.48-.16-.98-.23-1.59.18-1.83.2-.11.39-.17.57-.17.53,0,.87.5,1,.71.33.56.54,1.23.64,1.92l.07.53Zm-4.29,11.19l10.58-4.32-1.1-2.68-10.57,4.32,1.09,2.68Zm12.04,9.49l2.39-.59-2.13-8.66-2.4.59.72,2.92-8.7,2.14.69,2.82,8.7-2.15.72,2.93Zm3.52,11.27l-4.17-2.07,3.91-2.46-.19-3.4-6.7,4.51-4.49.25.17,2.9,4.49-.26,7.15,3.67-.17-3.15Zm3.83,1.27c0,42.31-34.41,76.71-76.71,76.71S10.95,148.64,10.95,106.33,45.36,29.61,87.66,29.61s76.71,34.42,76.71,76.72m2.06,0c0-43.44-35.33-78.78-78.77-78.78S8.89,62.89,8.89,106.33s35.33,78.76,78.77,78.76,78.77-35.34,78.77-78.76"/><rect class="cls-1" x="189.41" y="10.25" width="2.12" height="193.57"/></svg>